<mxfile host="app.diagrams.net" modified="2023-08-28T03:43:31.703Z" agent="Mozilla/5.0 (Windows NT 10.0; Win64; x64; rv:109.0) Gecko/20100101 Firefox/116.0" etag="2f02JHR9kyBvDiuIUPO3" version="21.6.9" type="github">
  <diagram name="Page-1" id="cqiVlCcLflOw0s2MbC7h">
    <mxGraphModel dx="1036" dy="544" grid="1" gridSize="10" guides="1" tooltips="1" connect="1" arrows="1" fold="1" page="1" pageScale="1" pageWidth="850" pageHeight="1100" math="0" shadow="0">
      <root>
        <mxCell id="0" />
        <mxCell id="1" parent="0" />
        <mxCell id="ZytkhdUL_DVWhSjxcokp-8" style="edgeStyle=orthogonalEdgeStyle;rounded=0;orthogonalLoop=1;jettySize=auto;html=1;entryX=0.5;entryY=0;entryDx=0;entryDy=0;fontSize=15;" parent="1" source="ZytkhdUL_DVWhSjxcokp-1" target="ZytkhdUL_DVWhSjxcokp-3" edge="1">
          <mxGeometry relative="1" as="geometry" />
        </mxCell>
        <mxCell id="ZytkhdUL_DVWhSjxcokp-1" value="Start" style="ellipse;whiteSpace=wrap;html=1;fontSize=15;" parent="1" vertex="1">
          <mxGeometry x="393" y="40" width="90" height="50" as="geometry" />
        </mxCell>
        <mxCell id="ZytkhdUL_DVWhSjxcokp-4" style="edgeStyle=orthogonalEdgeStyle;rounded=0;orthogonalLoop=1;jettySize=auto;html=1;entryX=1;entryY=0.5;entryDx=0;entryDy=0;fontSize=15;" parent="1" source="ZytkhdUL_DVWhSjxcokp-2" target="ZytkhdUL_DVWhSjxcokp-5" edge="1">
          <mxGeometry relative="1" as="geometry">
            <mxPoint x="190" y="280" as="targetPoint" />
          </mxGeometry>
        </mxCell>
        <mxCell id="ZytkhdUL_DVWhSjxcokp-10" style="edgeStyle=orthogonalEdgeStyle;rounded=0;orthogonalLoop=1;jettySize=auto;html=1;entryX=0.5;entryY=0;entryDx=0;entryDy=0;fontSize=15;" parent="1" source="ZytkhdUL_DVWhSjxcokp-2" target="ZytkhdUL_DVWhSjxcokp-11" edge="1">
          <mxGeometry relative="1" as="geometry">
            <mxPoint x="438" y="410" as="targetPoint" />
          </mxGeometry>
        </mxCell>
        <mxCell id="ZytkhdUL_DVWhSjxcokp-2" value="Check Bank Api" style="rhombus;whiteSpace=wrap;html=1;fontSize=15;" parent="1" vertex="1">
          <mxGeometry x="375.5" y="230" width="125" height="100" as="geometry" />
        </mxCell>
        <mxCell id="ZytkhdUL_DVWhSjxcokp-9" style="edgeStyle=orthogonalEdgeStyle;rounded=0;orthogonalLoop=1;jettySize=auto;html=1;entryX=0.5;entryY=0;entryDx=0;entryDy=0;fontSize=15;" parent="1" source="ZytkhdUL_DVWhSjxcokp-3" target="ZytkhdUL_DVWhSjxcokp-2" edge="1">
          <mxGeometry relative="1" as="geometry" />
        </mxCell>
        <mxCell id="ZytkhdUL_DVWhSjxcokp-3" value="Enter Account Number" style="rounded=0;whiteSpace=wrap;html=1;fontSize=15;" parent="1" vertex="1">
          <mxGeometry x="363" y="140" width="150" height="50" as="geometry" />
        </mxCell>
        <mxCell id="ZytkhdUL_DVWhSjxcokp-6" style="edgeStyle=orthogonalEdgeStyle;rounded=0;orthogonalLoop=1;jettySize=auto;html=1;entryX=0;entryY=0.5;entryDx=0;entryDy=0;fontSize=15;" parent="1" source="ZytkhdUL_DVWhSjxcokp-5" target="ZytkhdUL_DVWhSjxcokp-3" edge="1">
          <mxGeometry relative="1" as="geometry">
            <Array as="points">
              <mxPoint x="130" y="165" />
            </Array>
          </mxGeometry>
        </mxCell>
        <mxCell id="ZytkhdUL_DVWhSjxcokp-5" value="Open Bank Account" style="rounded=0;whiteSpace=wrap;html=1;fontSize=15;" parent="1" vertex="1">
          <mxGeometry x="80" y="250" width="120" height="60" as="geometry" />
        </mxCell>
        <mxCell id="ZytkhdUL_DVWhSjxcokp-18" style="edgeStyle=orthogonalEdgeStyle;rounded=0;orthogonalLoop=1;jettySize=auto;html=1;entryX=0.5;entryY=0;entryDx=0;entryDy=0;" parent="1" source="ZytkhdUL_DVWhSjxcokp-11" target="ZytkhdUL_DVWhSjxcokp-12" edge="1">
          <mxGeometry relative="1" as="geometry" />
        </mxCell>
        <mxCell id="ZytkhdUL_DVWhSjxcokp-11" value="Get customer KYC details via Bank API" style="rounded=0;whiteSpace=wrap;html=1;fontSize=15;" parent="1" vertex="1">
          <mxGeometry x="378" y="370" width="120" height="60" as="geometry" />
        </mxCell>
        <mxCell id="ZytkhdUL_DVWhSjxcokp-19" style="edgeStyle=orthogonalEdgeStyle;rounded=0;orthogonalLoop=1;jettySize=auto;html=1;entryX=0.5;entryY=0;entryDx=0;entryDy=0;" parent="1" source="ZytkhdUL_DVWhSjxcokp-12" target="ZytkhdUL_DVWhSjxcokp-13" edge="1">
          <mxGeometry relative="1" as="geometry" />
        </mxCell>
        <mxCell id="ZytkhdUL_DVWhSjxcokp-12" value="Take Finger Data" style="rounded=0;whiteSpace=wrap;html=1;fontSize=15;" parent="1" vertex="1">
          <mxGeometry x="378" y="480" width="120" height="60" as="geometry" />
        </mxCell>
        <mxCell id="ZytkhdUL_DVWhSjxcokp-20" style="edgeStyle=orthogonalEdgeStyle;rounded=0;orthogonalLoop=1;jettySize=auto;html=1;entryX=0.5;entryY=0;entryDx=0;entryDy=0;" parent="1" source="ZytkhdUL_DVWhSjxcokp-13" target="ZytkhdUL_DVWhSjxcokp-14" edge="1">
          <mxGeometry relative="1" as="geometry" />
        </mxCell>
        <mxCell id="ZytkhdUL_DVWhSjxcokp-13" value="User Credential" style="rounded=0;whiteSpace=wrap;html=1;fontSize=15;" parent="1" vertex="1">
          <mxGeometry x="378" y="590" width="120" height="60" as="geometry" />
        </mxCell>
        <mxCell id="ZytkhdUL_DVWhSjxcokp-21" style="edgeStyle=orthogonalEdgeStyle;rounded=0;orthogonalLoop=1;jettySize=auto;html=1;entryX=0.5;entryY=0;entryDx=0;entryDy=0;" parent="1" source="ZytkhdUL_DVWhSjxcokp-14" target="ZytkhdUL_DVWhSjxcokp-15" edge="1">
          <mxGeometry relative="1" as="geometry" />
        </mxCell>
        <mxCell id="ZytkhdUL_DVWhSjxcokp-14" value="Assign Locker" style="rounded=0;whiteSpace=wrap;html=1;fontSize=15;" parent="1" vertex="1">
          <mxGeometry x="378" y="700" width="120" height="60" as="geometry" />
        </mxCell>
        <mxCell id="ZytkhdUL_DVWhSjxcokp-22" style="edgeStyle=orthogonalEdgeStyle;rounded=0;orthogonalLoop=1;jettySize=auto;html=1;entryX=0.5;entryY=0;entryDx=0;entryDy=0;" parent="1" source="ZytkhdUL_DVWhSjxcokp-15" target="ZytkhdUL_DVWhSjxcokp-16" edge="1">
          <mxGeometry relative="1" as="geometry" />
        </mxCell>
        <mxCell id="ZytkhdUL_DVWhSjxcokp-15" value="Assign Customer Nominee" style="rounded=0;whiteSpace=wrap;html=1;fontSize=15;" parent="1" vertex="1">
          <mxGeometry x="378" y="810" width="120" height="60" as="geometry" />
        </mxCell>
        <mxCell id="ZytkhdUL_DVWhSjxcokp-16" value="End" style="ellipse;whiteSpace=wrap;html=1;fontSize=15;" parent="1" vertex="1">
          <mxGeometry x="393" y="920" width="90" height="50" as="geometry" />
        </mxCell>
        <mxCell id="ZytkhdUL_DVWhSjxcokp-23" value="NO" style="text;html=1;strokeColor=none;fillColor=none;align=center;verticalAlign=middle;whiteSpace=wrap;rounded=0;" parent="1" vertex="1">
          <mxGeometry x="270" y="250" width="60" height="30" as="geometry" />
        </mxCell>
        <mxCell id="ZytkhdUL_DVWhSjxcokp-27" value="Yes" style="text;html=1;strokeColor=none;fillColor=none;align=center;verticalAlign=middle;whiteSpace=wrap;rounded=0;" parent="1" vertex="1">
          <mxGeometry x="420" y="330" width="60" height="30" as="geometry" />
        </mxCell>
      </root>
    </mxGraphModel>
  </diagram>
</mxfile>
